{"title":"Heavy Metal 1981","uid":6560041,"size":514782402,"categoryP":"video","categoryS":"movies","magnet":"?xt=urn:btih:56e4db99bfeb4aed354906fd928a85542744fde6&amp;dn=Heavy+Metal+1981&amp;tr=udp%3A%2F%2Ftracker.openbittorrent.com%3A80&amp;tr=udp%3A%2F%2Fopen.demonii.com%3A1337&amp;tr=udp%3A%2F%2Ftracker.coppersurfer.tk%3A6969&amp;tr=udp%3A%2F%2Fexodus.desync.com%3A6969","seeders":0,"leechers":1,"uploader":"nitin2903","files":1,"time":1311428960,"description":"A glowing orb terrorizes a young girl with a collection of stories of dark fantasy, eroticism and horror. \n &lt;a href=&quot;\nhttp://www.savesnap.com/images/heavymetal.jpg&quot; rel=&quot;nofollow&quot; target=&quot;_NEW&quot;&gt;\nhttp://www.savesnap.com/images/heavymetal.jpg&lt;/a&gt;\n\n[Video Info]\nDecoder - (XVID) KMP Video Codec(Xvid-libcodec.dll)\nFormat - Major Type: Video - Sub Type: YUY2\nVideoInfo: YUY2 592X320, 16 bits\nFormat - Major Type: Video - Sub Type: YV12\nVideoInfo: YV12 640X-320, 12 bits\n\n[Audio Info]\nDecoder - (0x55) KMP Audio Codec(MP3 Audio-libmad.dll)\nFormat - Major Type: Audio - Sub Type: PCM\nWaveFormatEx: PCM(0x1), 44100 Hz, 16 Bits, 2 Ch\n\nFormat : AVI\n    Format/Info : Audio Video Interleave\n    File size : 491 MiB\n    Duration : 1h 30mn\n    Overall bit rate : 760 Kbps\n    Writing application : MEncoder 2:1.0~rc2-0ubuntu19+medibuntu1\n    Writing library : MPlayer\n  Video #0\n    ID : 0\n    Format : MPEG-4 Visual\n    Format profile : AdvancedSimple@L5\n    Format settings, BVOP : Yes\n    Format settings, QPel : No\n    Format settings, GMC : No warppoints\n    Format settings, Matrix : Default (H.263)\n    Codec ID : XVID\n    Codec ID/Hint : XviD\n    Duration : 1h 30mn\n    Bit rate : 668 Kbps\n    Width : 592 pixels\n    Height : 320 pixels\n    Display aspect ratio : 1.850\n    Frame rate : 23.976 fps\n    Resolution : 24 bits\n    Colorimetry : 4:2:0\n    Scan type : Progressive\n    Bits/(Pixel*Frame) : 0.147\n    Stream size : 432 MiB (88%)\n    Writing library : XviD 1.2.1 (UTC 2008-12-04)\n  Audio #1\n    ID : 1\n    Format : MPEG Audio\n    Format version : Version 1\n    Format profile : Layer 3\n    Codec ID : 55\n    Codec ID/Hint : MP3\n    Duration : 1h 30mn\n    Bit rate mode : Constant\n    Bit rate : 32.0 Kbps\n    Channel(s) : 2 channels\n    Sampling rate : 44.1 KHz\n    Resolution : 16 bits\n    Stream size : 51.2 MiB (10%)\n    Alignment : Aligned on interleaves\n    Interleave, duration : 26 ms (0.63 video frame)\n    Interleave, preload duration : 210 ms\n    Writing library : LAME3.98","torrent":{"xt":"urn:btih:56e4db99bfeb4aed354906fd928a85542744fde6","amp;dn":"Heavy+Metal+1981","amp;tr":["udp%3A%2F%2Ftracker.openbittorrent.com%3A80","udp%3A%2F%2Fopen.demonii.com%3A1337","udp%3A%2F%2Ftracker.coppersurfer.tk%3A6969","udp%3A%2F%2Fexodus.desync.com%3A6969"],"infoHash":"56e4db99bfeb4aed354906fd928a85542744fde6","infoHashBuffer":{"type":"Buffer","data":[86,228,219,153,191,235,74,237,53,73,6,253,146,138,133,84,39,68,253,230]},"announce":[],"urlList":[]}}